<svg xmlns="http://www.w3.org/2000/svg" viewBox="0 0 2895.27 504.77"><path style="fill: #003da6;stroke-width: 0px;" d="M247.13,39.36c2.76,5.29,4.14,14.55,4.14,27.79,0,13.89-3.45,30.32-10.34,49.29-4.37,11.25-14.82,31.09-31.37,59.54-10.57,16.99-20.45,35.06-29.64,54.25,14.48,11.91,39.52,22.05,75.14,30.43,32.63,8.39,59.17,16.76,79.62,25.14,17,8.6,29.99,23.71,38.95,45.32-1.38,49.18-26.31,83.81-74.79,103.87-28.26,12.57-63.88,22.71-106.85,30.43-45.04,7.94-77.9,13.12-98.58,15.55h-7.24c-53.08,0-81.12-4.96-84.1-14.89v-21.17c-.46-.44-.69-2.43-.69-5.95v-3.97c0-34.4.92-57,2.76-67.81,4.83-17.41,7.24-32.53,7.24-45.32,0-20.06-1.84-43.11-5.51-69.13C1.95,233.09,0,210.71,0,185.57c0-50.94,15.97-89.09,47.91-114.45v-.66h1.03l.69-.66c.46,0,.86-.17,1.21-.5s.63-.61.86-.83c.23-.21.46-.44.69-.66.92-.44,1.6-.66,2.07-.66.69-.66,1.32-1.32,1.9-1.98.57-.66,1.09-1.2,1.55-1.65h.69c.23-.21.46-.44.69-.66.23-.21.46-.44.69-.66,1.84-.87,3.33-1.76,4.48-2.65,5.29-3.97,11.83-8.71,19.65-14.22,32.86-20.51,52.16-32.2,57.91-35.06,14.48-6.83,29.07-10.25,43.77-10.25,24.82,0,45.27,13.12,61.35,39.36ZM194.05,75.09l-7.58-17.53c-26.43,3.31-50.67,15.77-72.73,37.38-22.29,21.17-38.95,45.54-49.98,73.1,4.6,35.28,6.89,80.93,6.89,136.94,0,50.07-2.3,87.22-6.89,111.47h7.58c27.34,0,49.98-1.54,67.9-4.63,2.07-.21,4.02-.44,5.86-.66,1.84-.21,4.65-.54,8.44-.99,3.79-.44,6.95-.77,9.48-.99,3.91-.44,7.24-.66,10-.66,1.15-.21,2.12-.38,2.93-.5.8-.11,2.12-.17,3.96-.17,2.53-.44,4.48-.66,5.86-.66.69-.21,1.32-.38,1.9-.5.57-.11,1.32-.17,2.24-.17,11.49-.87,16.89-1.32,16.2-1.32,14.7-2.65,34-7.61,57.91-14.89,24.13-8.15,39.64-21.05,46.53-38.7.92-1.76,1.38-2.86,1.38-3.31,0-6.4-8.39-13.01-25.16-19.85-15.63-7.06-35.39-13.77-59.28-20.18-42.51-11.25-63.54-16.87-63.08-16.87-39.52-11.69-59.28-31.42-59.28-59.21,3.22-17.64,11.94-35.17,26.2-52.59v-.66h.69v-.66h.69v-.99h.69v-1.32l1.38-1.32v-.66h.69v-.66h.69v-.66h1.03v-.66c.23,0,.46-.21.69-.66v-.66h.69v-.66h.69c0-.21.05-.38.17-.5.11-.11.29-.17.52-.17v-.66l.69-.66v-.66h.69v-.66l.69-.66v-.66h.69c0-.44.23-.66.69-.66v-.66l.69-.99c1.84-2.65,2.98-4.18,3.45-4.63.46-.44.74-.83.86-1.16.11-.33.52-.83,1.21-1.49.92-.87,1.67-1.76,2.24-2.65.57-.87,1.09-1.54,1.55-1.98.23-.21.63-.83,1.21-1.82.57-.99,1.09-1.82,1.55-2.48,6.66-8.15,10.22-12.45,10.68-12.9.92-1.54,1.84-2.86,2.76-3.97.92-1.1,1.6-1.98,2.07-2.65,6.2-8.15,11.2-16.59,14.99-25.3,3.79-8.71,6.26-17.7,7.41-26.96Z"/><path style="fill: #003da6;stroke-width: 0px;" d="M724.06,45.32c12.18,13.68,18.28,32.2,18.28,55.57,0,21.62-4.6,39.48-13.8,53.59-12.19,17.86-24.73,32.53-37.6,43.99-15.64,13.68-31.39,25.92-47.26,36.72-5.75,3.97-12.19,8.16-19.32,12.57-2.76,2.21-4.37,3.43-4.83,3.64-.23.22-.57.5-1.03.83-.46.33-1.03.72-1.72,1.16-1.15.45-4.02,2.43-8.62,5.95-.46.22-2.19,1.38-5.18,3.47-2.99,2.1-4.95,3.47-5.86,4.13-2.07,1.32-3.5,2.21-4.31,2.65-.81.45-1.55.88-2.24,1.32-1.38.88-2.53,1.77-3.45,2.65,9.43,11.03,20,19.41,31.73,25.14,21.39,8.6,38.06,14.67,50.02,18.19,21.84,6.84,38.17,13.89,48.98,21.17,14.71,7.5,37.48,21.29,68.3,41.35,14.49,9.05,24.95,15.77,31.39,20.18.46,0,1.15.45,2.07,1.32,1.84.88,3.68,2.1,5.52,3.64,1.83.88,3.67,2.21,5.51,3.97,2.07,1.32,4.25,2.65,6.55,3.97,3.22,1.77,4.83,2.87,4.83,3.31h1.38c.23.22.46.45.69.66.23.22.4.45.52.66.11.22.17.55.17.99.46,0,1.03.22,1.72.66,1.38.88,2.36,1.54,2.94,1.98.57.45,1.21.88,1.9,1.32,2.76,12.79,4.14,21.62,4.14,26.46,0,24.27-9.43,43-28.28,56.23-12.19-7.72-28.64-22.93-49.33-45.65-19.32-21.61-37.26-37.38-53.81-47.3-17.94-15.22-41.28-28.33-70.02-39.36-5.52-1.98-13.8-5.01-24.84-9.1-11.04-4.08-20.12-7.39-27.25-9.92-7.13-2.53-18.62-6.78-34.49-12.74-29.9-10.8-54.96-23.7-75.2-38.7-1.84,11.47-2.76,24.15-2.76,38.04v-5.95c.23,0,.69,12.36,1.38,37.05.92,5.74,1.38,16.66,1.38,32.75,0,24.27-6.33,46.1-18.97,65.49-6.21,3.76-11.38,5.62-15.52,5.62-5.75,0-13-4.51-21.74-13.56-2.53-1.98-6.56-5.62-12.08-10.92-1.15-1.1-1.78-1.76-1.9-1.98-.12-.21-.4-.44-.86-.66l-1.38-1.32c1.15-12.57,3.45-43.99,6.9-94.27,0-6.83,1.15-24.26,3.45-52.26,0-10.36.69-22.04,2.07-35.06,0-4.63.23-8.48.69-11.58v-16.21c1.38-14.77,2.7-30.76,3.96-47.96,1.26-17.2,2.07-28.33,2.42-33.41.34-5.07.86-10.92,1.55-17.53,42.08-52.7,103.02-91.84,182.82-117.43,4.6-.87,7.01-1.32,7.25-1.32h4.83c1.84,0,4.25-.21,7.24-.66,21.39,0,48.41,8.82,81.06,26.46ZM681.63,98.9l-13.45-14.22c-5.52-.87-10.23-1.32-14.14-1.32-12.42,0-25.07,1.98-37.94,5.95-24.84,7.94-39.9,12.9-45.19,14.89-20.47,8.16-35.07,13.12-43.81,14.89-14.72,27.57-22.08,63.96-22.08,109.16v10.92c0,.22,7.13-2.98,21.38-9.59.92-.44,2.76-1.1,5.52-1.98.46-.44.86-.71,1.21-.83.34-.11.64-.28.87-.5.46,0,.92-.21,1.38-.66.23,0,1.72-.44,4.49-1.32.69-.21,1.43-.54,2.24-.99.8-.44,1.43-.71,1.9-.83.46-.11,1.61-.61,3.45-1.49l20.01-8.27c38.86-15.43,68.06-31.64,87.61-48.62,17.71-16.54,26.56-38.25,26.56-65.16Z"/><path style="fill: #003da6;stroke-width: 0px;" d="M995.77,274.22v1.32c0,.66-.23,1.21-.69,1.65v.66c0,.88-.23,1.32-.69,1.32-.46.45-.69,1.32-.69,2.65-.46,0-.69,1.32-.69,3.97v1.32l-.69.66v.66h-.69v.66c-.69,2.87-1.15,4.3-1.38,4.3v2.65c-.23.88-.52,1.98-.86,3.31s-.86,2.43-1.55,3.31l-1.38,6.28c-.92,2.65-1.55,4.63-1.9,5.95-.34,1.32-.81,2.93-1.38,4.8-.57,1.87-1.09,3.47-1.55,4.8-2.3,7.5-7.7,28.9-16.2,64.17-2.53,9.92-4.14,26.02-4.83,48.29,0,15,.69,24.48,2.07,28.45-2.76,5.95-7.93,8.93-15.51,8.93-8.74,0-19.08-3.19-31.02-9.59-9.19-4.84-18.15-10.03-26.88-15.55.69-31.75,2.98-55.02,6.89-69.79,2.53-9.47,5.97-23.26,10.34-41.35,4.36-18.07,8.96-37.05,13.79-56.89,11.72-43,19.18-79.83,22.4-110.48,2.29-2.86,4.48-16.42,6.55-40.69.69-26.24,2.76-43.88,6.2-52.92,3.91-11.69,11.03-17.53,21.37-17.53,7.35,0,18.38,4.75,33.09,14.22,3.67,14.34,5.51,27.24,5.51,38.7,0,7.5-3.45,30.98-10.34,70.46-7.58,33.3-11.37,56.78-11.37,70.46v-3.31c.46,0,.69,1.32.69,3.97.23,1.32.4,2.54.52,3.64.11,1.11.17,2.54.17,4.3v4.96c0,3.1.23,5.51.69,7.28Z"/><path style="fill: #003da6;stroke-width: 0px;" d="M1191.54,107.83c-5.51,22.94-14.48,50.17-26.88,81.7-3.91,8.82-13.79,35.51-29.64,80.05-5.74,15.44-8.62,35.51-8.62,60.2,0,15.44,1.72,29,5.17,40.69,28.49,25.36,63.76,38.04,105.82,38.04s85.82-10.8,132.01-32.42c2.76.88,6.55,1.32,11.37,1.32,8.5,0,14.13-.44,16.89-1.32,3.45-1.1,9.08-1.65,16.89-1.65,14.94,0,26.42,5.74,34.47,17.2,2.98,5.74,4.48,10.04,4.48,12.9,0,14.77-15.17,26.91-45.5,36.39-34.01,10.14-65.95,17.2-95.82,21.17-20.68,3.31-47.57,7.4-80.65,12.24v-.99h-1.38c-.46,0-1.15-.21-2.07-.66v-.66h-3.45c-3.68,0-7.93-.66-12.75-1.98-5.29-.66-11.84-1.76-19.65-3.31-3.91-1.1-8.62-1.98-14.13-2.65-2.76-.87-5.4-1.32-7.93-1.32-21.14-4.63-39.41-11.03-54.8-19.19-15.4-7.28-28.15-19.85-38.26-37.71-8.05-21.38-12.06-43.11-12.06-65.16s1.95-39.69,5.86-51.6c5.51-21.17,13.44-47.51,23.78-79.06,11.49-31.09,18.84-60.64,22.06-88.65,1.38-8.15,5.05-19.3,11.03-33.41,5.74-12.57,14.01-18.85,24.82-18.85,8.96,0,17,4.75,24.13,14.22,7.81,11.7,12.75,19.85,14.82,24.48Z"/><path style="fill: #003da6;stroke-width: 0px;" d="M1803,117.1c18.61,17.2,34.34,39.15,47.22,65.83,11.72,27.34,17.58,53.48,17.58,78.39,0,22.71-3.23,39.48-9.65,50.28-7.58,28.9-27.35,51.49-59.28,67.81-33.56,17.42-60.44,28.9-80.65,34.4-7.81,5.08-29.64,14.11-65.49,27.12-30.79,10.81-62.16,16.21-94.1,16.21-13.56,0-25.05-.87-34.47-2.65-10.57-14.11-17.58-41.68-21.03-82.7-2.76-24.69-4.48-56.78-5.17-96.26v-40.36c-.46,0-.69-2.32-.69-6.95,0-75.63,10.34-127.56,31.02-155.8-4.14-8.15-6.2-17.2-6.2-27.12,0-11.03,6.32-16.87,18.96-17.53,46.41,2.65,93.75,11.03,142.01,25.14,46.65,14.77,86.63,36.17,119.95,64.17ZM1795.07,198.47c-8.74-16.09-20.22-30.64-34.47-43.66-14.25-13.01-31.14-24.48-50.67-34.4-38.83-19.4-79.62-29.11-122.36-29.11-12.64,0-19.88.45-21.71,1.32,0,19.41-.92,45.44-2.76,78.06-2.07,36.61-3.1,64.39-3.1,83.36,0,59.54,7.35,103.75,22.06,132.64,90.53-14.11,159.93-43,208.18-86.66,13.1-24.03,19.65-44.1,19.65-60.2s-4.95-29.22-14.82-41.35Z"/><path style="fill: #003da6;stroke-width: 0px;" d="M2353.1,100.89c12.64,11.47,22.06,24.6,28.26,39.36,6.2,13.68,11.14,29.66,14.82,47.96,5.06,33.74,7.93,50.94,8.62,51.6v3.31c-.46,0-.69.22-.69.66-.23.45-.46.66-.69.66v1.98c-.23.45-.46.66-.69.66v1.65c-.23.45-.46.66-.69.66v1.32c-.23.88-.52,1.65-.86,2.32s-.75,1.65-1.21,2.98c0,1.11-.06,1.87-.17,2.32-.11.45-.29.99-.52,1.65,0,.88-.23,1.32-.69,1.32-.46,1.11-.69,2.1-.69,2.98v.66c-.69,0-1.03.45-1.03,1.32-.46,0-.69.88-.69,2.65-.23,0-.69,1.32-1.38,3.97-.23.66-.46,1.32-.69,1.98-.23.66-.46,1.21-.69,1.65v1.32c-5.97,17.2-15.63,33.86-28.95,49.95-16.31,20.07-37.91,39.48-64.8,58.22-9.65,6.84-20.68,13.95-33.09,21.34-12.41,7.4-26.02,14.89-40.84,22.49-14.82,7.61-30.63,15.38-47.39,23.32-24.6,9.48-52.39,14.22-83.41,14.22-1.85,0-2.99-.21-3.45-.66h-14.13c-4.14-.21-7.93-.38-11.37-.5-3.45-.11-8.4-.17-14.82-.17,0-.44-1.38-.66-4.14-.66-2.99,0-4.95-.21-5.86-.66h-14.13v-.66c0-.44-.06-.66-.17-.66h-.52c-.92,0-2.07-.66-3.45-1.98-4.14-1.98-5.74-2.98-4.83-2.98-3.45-2.2-5.64-3.52-6.55-3.97-1.16-.66-2.54-1.54-4.14-2.65-1.61-1.1-2.76-1.76-3.45-1.98l-1.38-1.32c-1.16,0-2.64-.87-4.48-2.65-.69-.66-1.16-.99-1.38-.99-.23-.44-.52-.83-.86-1.16-.34-.33-.75-.61-1.21-.83-.23-.21-.47-.38-.69-.5-.23-.11-.47-.17-.69-.17h-.69l-.69-.66h-.69c-2.76-1.76-4.71-2.65-5.86-2.65-17.46-11.91-29.87-21.17-37.22-27.79-11.26-10.8-19.3-22.49-24.13-35.06-5.51-14.11-8.27-32.42-8.27-54.91,0-42.34,14.82-88.2,44.46-137.6,13.56-21.61,31.82-38.37,54.8-50.28,22.06-10.58,52.05-22.27,89.96-35.06,37.68-11.46,66.05-23.04,85.13-34.73,19.76-3.52,33.66-5.29,41.71-5.29,43.66,0,84.1,14.22,121.33,42.67ZM2330.69,183.58c-8.04-19.85-21.94-34.07-41.71-42.67-17.69-9.04-40.21-13.56-67.56-13.56h4.14c6.43,0-3.91.45-31.02,1.32-18.15,0-40.56,7.73-67.21,23.15-26.66,14.77-47.11,22.16-61.35,22.16-30.56,12.36-51.93,31.09-64.11,56.23-12.88,24.7-21.37,56.56-25.51,95.6,5.05,17.42,13.79,32.75,26.2,45.98,11.94,14.55,25.51,23.82,40.67,27.79,24.13,3.31,40.44,4.96,48.94,4.96,84.32,0,162.92-42.67,235.76-128.01,8.04-32.63,12.06-52.59,12.06-59.87,0-12.35-3.1-23.37-9.31-33.08Z"/><path style="fill: #003da6;stroke-width: 0px;" d="M2763.85,45.32c12.18,13.68,18.28,32.2,18.28,55.57,0,21.62-4.6,39.48-13.8,53.59-12.19,17.86-24.73,32.53-37.6,43.99-15.64,13.68-31.39,25.92-47.25,36.72-5.75,3.97-12.19,8.16-19.32,12.57-2.77,2.21-4.37,3.43-4.83,3.64-.23.22-.57.5-1.03.83-.46.33-1.03.72-1.72,1.16-1.15.45-4.02,2.43-8.63,5.95-.46.22-2.18,1.38-5.17,3.47-3,2.1-4.95,3.47-5.87,4.13-2.07,1.32-3.5,2.21-4.32,2.65-.8.45-1.55.88-2.24,1.32-1.38.88-2.53,1.77-3.45,2.65,9.43,11.03,20.01,19.41,31.73,25.14,21.39,8.6,38.06,14.67,50.02,18.19,21.85,6.84,38.18,13.89,48.98,21.17,14.71,7.5,37.48,21.29,68.29,41.35,14.49,9.05,24.96,15.77,31.4,20.18.45,0,1.14.45,2.07,1.32,1.84.88,3.68,2.1,5.51,3.64,1.84.88,3.68,2.21,5.51,3.97,2.07,1.32,4.25,2.65,6.56,3.97,3.22,1.77,4.83,2.87,4.83,3.31h1.38c.22.22.45.45.69.66.22.22.39.45.52.66.11.22.17.55.17.99.45,0,1.03.22,1.72.66,1.38.88,2.36,1.54,2.93,1.98.57.45,1.21.88,1.9,1.32,2.76,12.79,4.14,21.62,4.14,26.46,0,24.27-9.43,43-28.29,56.23-12.19-7.72-28.63-22.93-49.32-45.65-19.32-21.61-37.26-37.38-53.81-47.3-17.94-15.22-41.29-28.33-70.03-39.36-5.52-1.98-13.8-5.01-24.84-9.1-11.04-4.08-20.11-7.39-27.25-9.92-7.13-2.53-18.63-6.78-34.5-12.74-29.9-10.8-54.96-23.7-75.2-38.7-1.84,11.47-2.76,24.15-2.76,38.04v-5.95c.22,0,.69,12.36,1.38,37.05.92,5.74,1.38,16.66,1.38,32.75,0,24.27-6.33,46.1-18.97,65.49-6.2,3.76-11.38,5.62-15.52,5.62-5.75,0-13-4.51-21.74-13.56-2.53-1.98-6.55-5.62-12.07-10.92-1.15-1.1-1.78-1.76-1.9-1.98-.11-.21-.4-.44-.86-.66l-1.38-1.32c1.15-12.57,3.45-43.99,6.9-94.27,0-6.83,1.14-24.26,3.45-52.26,0-10.36.69-22.04,2.07-35.06,0-4.63.23-8.48.69-11.58v-16.21c1.38-14.77,2.7-30.76,3.96-47.96,1.27-17.2,2.08-28.33,2.42-33.41.34-5.07.86-10.92,1.55-17.53,42.08-52.7,103.02-91.84,182.83-117.43,4.6-.87,7.01-1.32,7.24-1.32h4.83c1.84,0,4.25-.21,7.25-.66,21.39,0,48.4,8.82,81.06,26.46ZM2721.41,98.9l-13.45-14.22c-5.52-.87-10.23-1.32-14.15-1.32-12.42,0-25.06,1.98-37.94,5.95-24.84,7.94-39.9,12.9-45.19,14.89-20.46,8.16-35.07,13.12-43.81,14.89-14.71,27.57-22.07,63.96-22.07,109.16v10.92c0,.22,7.12-2.98,21.38-9.59.92-.44,2.76-1.1,5.51-1.98.46-.44.87-.71,1.21-.83.34-.11.63-.28.86-.5.46,0,.92-.21,1.38-.66.23,0,1.72-.44,4.49-1.32.69-.21,1.43-.54,2.24-.99.8-.44,1.43-.71,1.9-.83.46-.11,1.61-.61,3.45-1.49l20.01-8.27c38.87-15.43,68.07-31.64,87.61-48.62,17.71-16.54,26.56-38.25,26.56-65.16Z"/></svg>
