<svg xmlns="http://www.w3.org/2000/svg" xmlns:xlink="http://www.w3.org/1999/xlink" id="Capa_1" x="0px" y="0px" viewBox="0 0 197.8 85.6" style="enable-background:new 0 0 197.8 85.6;" xml:space="preserve"><style type="text/css">	.st0{fill:#274695;}	.st1{fill:none;}</style><g>	<g>		<path class="st0" d="M19.5,53h-0.1C20.2,53.1,19.7,53.1,19.5,53"></path>		<path class="st0" d="M36.1,69.2c3.8-3.8,6-19.1-10-19.1c0,0,3.5-3.2,2.4-8.1c0,0,6.4-1.5,17.6-1.5c0,0-6-2.5-22.2-1   c1.1,0.5,2.4,6.8-3.5,9c-9,3.3-14-5.6-13.6-6c7.4-0.1,10.8-5,10.4-4.9c-4.1,0.6-7.3,0.8-11.4,0.2c-0.8-0.1-1.1-0.6-0.8-1   c1.5-1.9,3.7-2.8,5.3-3.2C17,32,23.7,32,26.6,32c0,0-0.9,1.8,0.6,1.8c2.5,0,3.4-1.9,3.5-1.9c3.3-0.2,9.1-0.2,13.1-4.9   c0,0-17.5-0.7-17.7-0.3c-1.4,2.1-4.1,4.6-13.1,4.6c-0.5,0,1.3-2.1,1.7-2.5c4.7-5.5,13.6-14.4,27.1-17.6C53.7,8.3,62,9.4,66.8,10.9   c0.6,0.2-6.2-5.4-22.7-3.7c-0.4,0-0.8-0.4-0.6-0.8c1.2-2.8-0.6-4-2.1-4.1c-4.8-0.2-11.7,7.9-12.9,9.5c0,0.1-0.1,0.1-0.1,0.1   c-9,6.5-15.3,15.7-15.3,15.7c-5.3,2.6-9,6.1-10.5,8.3c-2.1,3.1,0.1,4.6,1.9,6.4c0,0,5.8,12.2,10.3,13.9c0.5,0.2-1.9-3.8-1.4-6.1   c1.2,2.2,4.5,7.6,7.1,9.2c0.4,0.3-1.5-4.2-1.1-6.5h0.1c14.1-0.4,11.7,11.8,10.9,13c-3,4.7-8.6-1.1-8.3-0.5   c1.1,2.9,2.8,4.3,3.6,4.8C28.7,72.4,33.6,71.7,36.1,69.2z"></path>		<path class="st0" d="M37.1,43.2C37.1,43.2,37,43.2,37.1,43.2L37.1,43.2C37,43.3,37.1,43.3,37.1,43.2"></path>		<path class="st0" d="M78.3,17.1c0,0,16.1,20.6-1.6,30.9c0.2-1.1,0.4-6.6-1-10.1C71.9,28.7,68,27.2,68,27.2   c1.7,2.3,8.7,16-1.1,29.2c-1,1.3-3.1,0.5-3.4-1.1c-1.4-7.3-5.9-21.7-5.9-21.7c0.5,7.2,2.3,35-3.9,35.8c-5.8,0.6-7.6-15.6-1.8-25.4   c-0.7,1.1-7.1,8.9-6.8,20.3c0,0.3,0,0.6,0.1,0.9c-0.2-1.1-1.7-4-3.6-5.5c1.4,1.2,1.3,5.1,0,8.7c-1.5,5-9.1,8.9-14.9,3.7   c1,1.6,2.1,3.2,5.8,5.2c7,3.2,13.8-1.6,13.8-7.3c1.5,8,9.5,13.2,10.7,13.8c0.1,0.1-2.4-15.4,20.5-29   C100.9,40.8,78.3,17.1,78.3,17.1z"></path>		<path class="st0" d="M51.9,44c0,0,0-0.1,0-0.1C51.9,44,51.9,44,51.9,44"></path>		<path class="st0" d="M47.9,26.8c0,0,5.2-5.7,12.8-6.3c6.8-0.5,3.2,6.5,3.2,6.5s10.8-12.5,1.2-12.6C53.5,14.3,47.9,26.8,47.9,26.8"></path>		<path class="st0" d="M133.8,44.1h15.9c0,0-1.5-0.4-2.3-2.5c-0.7-1.9-0.5-3.2-0.5-3.2h-12.3l0.6-4.2h12.1c0,0,0-0.8,1.3-3.3   c1.4-2.5,2.7-3.1,2.7-3.1h-30.1c0,0-1.5,0-2.6,0.3c-0.2,0-0.5,0.2-1,0.4h-6.3c-3.4,0-4.9,0.8-4.9,0.8h-6.1c-3.1,0-3.2,0.6-3.2,0.6   h7.1h10.9h0.2h13.7l-0.1,0.5h-8.5c0,0-1.5,0-2.6,0.3c-0.2,0-0.5,0.2-1,0.4h-6.3c-3.4,0-4.9,0.8-4.9,0.8h-6.1   c-3.1,0-3.2,0.6-3.2,0.6h7.1h10.9h0.2h13.9l-0.1,0.5h-8.6c0,0-1.5,0-2.6,0.3c-0.2,0-0.5,0.2-1,0.4h-6.5c-3.4,0-4.9,0.8-4.9,0.8   h-6.1c-3.1,0-3.2,0.6-3.2,0.6h7.1h11.2h0h14.2l-0.1,0.5H120c0,0-1.5,0-2.6,0.3c-0.2,0-0.5,0.2-1,0.4H110c-3.4,0-4.9,0.8-4.9,0.8   h-6.1c-3.1,0-3.2,0.6-3.2,0.6h7.1h11.2h14.1l-0.1,0.5h-8.6c0,0-1.5,0-2.6,0.3c-0.2,0-0.5,0.2-1,0.4h-6.4c-3.4,0-4.9,0.8-4.9,0.8   h-6.1c-3.1,0-3.2,0.6-3.2,0.6h7.1h25.4l-0.1,0.5h-8.6c0,0-1.5,0-2.6,0.3c-0.2,0-0.5,0.2-1,0.4h-6.3c-3.4,0-4.9,0.8-4.9,0.8h-6.1   c-3.1,0-3.2,0.6-3.2,0.6h7.1h25.2l-0.1,0.5h-8.7c0,0-1.5,0-2.6,0.3c-0.2,0-0.5,0.2-1,0.4h-5.8c-3.4,0-4.9,0.8-4.9,0.8h-6.1   c-3.1,0-3.2,0.6-3.2,0.6h7.1h24.8l-0.1,0.5h-8.7c0,0-1.5,0-2.6,0.3c-0.2,0-0.5,0.2-1,0.4h-6.4c-3.4,0-4.9,0.8-4.9,0.8h-6.1   c-3.1,0-3.2,0.6-3.2,0.6h7.1h25.3l-0.1,0.5h-8.7c0,0-1.5,0-2.6,0.3c-0.2,0-0.5,0.2-1,0.4h-6.3c-3.4,0-4.9,0.8-4.9,0.8h-6.1   c-3.1,0-3.2,0.6-3.2,0.6h7.1h25.3l-0.1,0.5h-8.6c0,0-1.5,0-2.6,0.3c-0.2,0-0.5,0.2-1,0.4h-6.2c-3.4,0-4.9,0.8-4.9,0.8h-6.1   c-3.1,0-3.2,0.6-3.2,0.6h7.1h25.1l-0.1,0.5h-8.6c0,0-1.5,0-2.6,0.3c-0.2,0-0.5,0.2-1,0.4h-6.3c-3.4,0-4.9,0.8-4.9,0.8h-6.1   c-3.1,0-3.2,0.6-3.2,0.6h7.1H129h16.9l0.9-6.4H133L133.8,44.1z"></path>		<path class="st0" d="M168.6,40.5c-0.8-1-1.7-1.7-2.7-2c-0.9-0.2-1.9-0.3-3.1-0.3h-5.9c-0.6,0-1.2-0.2-1.4-0.5l0,0   c-0.1-0.1-0.4-0.3-0.2-1.2c0.2-1.1,0.7-2.6,3.3-2.6H171l0.8-6.2h-13.4c-1.4,0-2.5,0.1-3.3,0.4c-1,0.3-1.9,0.7-2.7,1.3   c-0.8,0.6-1.5,1.5-2.1,2.7c-0.6,1.2-0.9,2.3-1.1,3.8c-0.4,3,0,5.1,1.3,6.4c1.2,1.3,3.1,1.9,5.5,1.9h5.3c0.5,0,1,0,1.3,0.1   c0.3,0.1,0.5,0.2,0.6,0.4c0,0.1,0.1,0.3,0.1,0.9l-0.1,0.5c-0.1,0.8-0.4,1.3-0.8,1.6c-0.5,0.3-1.3,0.5-2.3,0.5h-11.2l-0.9,6.3H160   c1.3,0,2.5-0.1,3.3-0.4c1-0.3,1.9-0.7,2.7-1.4c0.8-0.6,1.4-1.4,1.9-2.3c0.4-0.8,0.7-1.5,0.9-2.2c0.2-0.6,0.3-1.3,0.4-2   C169.7,43.6,169.5,41.7,168.6,40.5z"></path>		<path class="st0" d="M194.6,32.1c-0.4-1.1-1-1.9-1.8-2.6c-0.7-0.6-1.6-1.2-2.6-1.5c-1-0.3-5-0.1-7.1-0.1h-9.5l-3.8,26.8h6l1.3-8.9   h9.2c1.2,0,2.3-0.2,3.4-0.6s2.1-1.1,2.9-1.9c0.9-0.8,1.5-1.9,2-3.1c0.5-1.2,0.8-2.6,0.8-4.1C195.2,34.5,195,33.1,194.6,32.1z    M188.2,38.8c-0.5,0.6-1.3,0.9-2.3,0.9h-8.1l0.8-5.9h7.8c0.4,0,0.7,0,1.1,0.1c0.3,0.1,0.6,0.2,0.8,0.4c0.2,0.1,0.4,0.4,0.5,0.6   c0.1,0.3,0.2,0.7,0.2,1.2C189,37.3,188.8,38.2,188.2,38.8"></path>		<g>			<path class="st0" d="M91.9,64.9l1-0.1c0,0.3,0.1,0.5,0.2,0.6c0.2,0.2,0.5,0.3,0.9,0.3c0.4,0,0.6-0.1,0.8-0.2    c0.2-0.1,0.2-0.3,0.2-0.4c0-0.1-0.1-0.3-0.2-0.4c-0.1-0.1-0.3-0.2-0.7-0.4c-0.4-0.2-0.7-0.3-0.9-0.4c-0.2-0.1-0.3-0.3-0.4-0.4    c-0.1-0.2-0.2-0.4-0.2-0.6c0-0.4,0.2-0.8,0.5-1.1s0.8-0.4,1.4-0.4c0.6,0,1.1,0.1,1.4,0.4c0.3,0.3,0.5,0.7,0.6,1.1l-1,0    c0-0.2-0.1-0.4-0.3-0.6c-0.2-0.1-0.4-0.2-0.7-0.2c-0.3,0-0.5,0.1-0.6,0.2c-0.1,0.1-0.2,0.2-0.2,0.4c0,0.1,0.1,0.3,0.2,0.4    c0.1,0.1,0.4,0.2,0.8,0.4c0.6,0.3,1,0.5,1.2,0.6c0.2,0.2,0.4,0.5,0.4,0.9c0,0.4-0.2,0.8-0.6,1.1c-0.4,0.3-0.9,0.5-1.5,0.5    c-0.5,0-0.8-0.1-1.2-0.2s-0.6-0.3-0.7-0.6S91.9,65.2,91.9,64.9z"></path>			<path class="st0" d="M97.7,64.5c0-0.3,0-0.6,0.1-0.9c0.1-0.4,0.3-0.8,0.6-1.2c0.3-0.3,0.6-0.6,0.9-0.8c0.4-0.2,0.8-0.3,1.3-0.3    c0.7,0,1.2,0.2,1.6,0.6s0.6,0.9,0.6,1.5c0,0.5-0.1,1.1-0.4,1.6c-0.3,0.5-0.6,0.9-1.1,1.2s-1,0.4-1.5,0.4c-0.5,0-0.9-0.1-1.2-0.3    c-0.3-0.2-0.6-0.5-0.7-0.8C97.8,65.2,97.7,64.8,97.7,64.5z M98.8,64.5c0,0.3,0.1,0.6,0.3,0.9s0.5,0.4,0.9,0.4    c0.3,0,0.6-0.1,0.8-0.3s0.5-0.5,0.7-0.8s0.3-0.7,0.3-1.1c0-0.4-0.1-0.7-0.3-0.9c-0.2-0.2-0.5-0.3-0.9-0.3c-0.5,0-1,0.2-1.3,0.7    S98.8,63.9,98.8,64.5z"></path>			<path class="st0" d="M103.9,66.5l1.1-5.1h1.1l-0.9,4.2h2.7l-0.2,0.8H103.9z"></path>			<path class="st0" d="M110.3,61.4h1.1l-0.6,2.8l-0.1,0.7c0,0.1,0,0.1,0,0.2c0,0.2,0.1,0.4,0.2,0.5c0.2,0.1,0.4,0.2,0.7,0.2    c0.3,0,0.5,0,0.6-0.1c0.2-0.1,0.3-0.2,0.4-0.4c0.1-0.2,0.2-0.5,0.3-1l0.6-2.8h1.1l-0.6,2.8c-0.1,0.6-0.3,1-0.4,1.3    c-0.2,0.3-0.4,0.6-0.8,0.8c-0.3,0.2-0.8,0.3-1.3,0.3c-0.6,0-1.1-0.1-1.4-0.4c-0.3-0.3-0.5-0.7-0.5-1.1c0-0.1,0-0.2,0-0.3    c0-0.1,0.1-0.3,0.1-0.6L110.3,61.4z"></path>			<path class="st0" d="M117.5,66.5h-1.1l0.9-4.2h-1.5l0.2-0.8h4.2l-0.2,0.8h-1.5L117.5,66.5z"></path>			<path class="st0" d="M120.4,66.5l1.1-5.1h1.1l-1.1,5.1H120.4z"></path>			<path class="st0" d="M123.6,64.5c0-0.3,0-0.6,0.1-0.9c0.1-0.4,0.3-0.8,0.6-1.2c0.3-0.3,0.6-0.6,0.9-0.8c0.4-0.2,0.8-0.3,1.3-0.3    c0.7,0,1.2,0.2,1.6,0.6c0.4,0.4,0.6,0.9,0.6,1.5c0,0.5-0.1,1.1-0.4,1.6c-0.3,0.5-0.6,0.9-1.1,1.2s-1,0.4-1.5,0.4    c-0.5,0-0.9-0.1-1.2-0.3c-0.3-0.2-0.6-0.5-0.7-0.8C123.7,65.2,123.6,64.8,123.6,64.5z M124.7,64.5c0,0.3,0.1,0.6,0.3,0.9    s0.5,0.4,0.9,0.4c0.3,0,0.6-0.1,0.8-0.3s0.5-0.5,0.7-0.8s0.3-0.7,0.3-1.1c0-0.4-0.1-0.7-0.3-0.9c-0.2-0.2-0.5-0.3-0.9-0.3    c-0.5,0-1,0.2-1.3,0.7S124.7,63.9,124.7,64.5z"></path>			<path class="st0" d="M134,66.5h-1l-1.4-3.4l-0.7,3.4h-1l1.1-5.1h1l1.4,3.4l0.7-3.4h1L134,66.5z"></path>			<path class="st0" d="M136,64.9l1-0.1c0,0.3,0.1,0.5,0.2,0.6c0.2,0.2,0.5,0.3,0.9,0.3c0.4,0,0.6-0.1,0.8-0.2    c0.2-0.1,0.2-0.3,0.2-0.4c0-0.1-0.1-0.3-0.2-0.4c-0.1-0.1-0.3-0.2-0.7-0.4c-0.4-0.2-0.7-0.3-0.9-0.4c-0.2-0.1-0.3-0.3-0.4-0.4    c-0.1-0.2-0.2-0.4-0.2-0.6c0-0.4,0.2-0.8,0.5-1.1s0.8-0.4,1.4-0.4c0.6,0,1.1,0.1,1.4,0.4c0.3,0.3,0.5,0.7,0.6,1.1l-1,0    c0-0.2-0.1-0.4-0.3-0.6c-0.2-0.1-0.4-0.2-0.7-0.2c-0.3,0-0.5,0.1-0.6,0.2c-0.1,0.1-0.2,0.2-0.2,0.4c0,0.1,0.1,0.3,0.2,0.4    c0.1,0.1,0.4,0.2,0.8,0.4c0.6,0.3,1,0.5,1.2,0.6c0.2,0.2,0.4,0.5,0.4,0.9c0,0.4-0.2,0.8-0.6,1.1c-0.4,0.3-0.9,0.5-1.5,0.5    c-0.5,0-0.8-0.1-1.2-0.2s-0.6-0.3-0.7-0.6S136,65.2,136,64.9z"></path>			<path class="st0" d="M147.3,63.8h2.4l-0.5,2.2c-0.3,0.2-0.6,0.3-1,0.4c-0.4,0.1-0.8,0.2-1.2,0.2c-0.7,0-1.2-0.1-1.5-0.4    c-0.5-0.4-0.7-0.9-0.7-1.7c0-0.5,0.1-1,0.3-1.4c0.2-0.5,0.6-1,1-1.3c0.5-0.3,1-0.4,1.6-0.4c0.6,0,1.1,0.1,1.5,0.4    c0.4,0.3,0.6,0.7,0.7,1.2l-1,0.1c-0.1-0.3-0.2-0.5-0.4-0.6c-0.2-0.1-0.4-0.2-0.7-0.2c-0.3,0-0.7,0.1-1,0.3    c-0.3,0.2-0.5,0.4-0.7,0.8c-0.2,0.4-0.2,0.8-0.2,1.2c0,0.4,0.1,0.7,0.3,0.9s0.5,0.3,0.9,0.3c0.2,0,0.5,0,0.7-0.1    c0.2-0.1,0.5-0.1,0.6-0.2l0.2-0.8h-1.3L147.3,63.8z"></path>			<path class="st0" d="M151.9,66.5h-1.1l1.1-5.1h2.3c0.4,0,0.7,0,0.9,0.1c0.2,0.1,0.4,0.2,0.5,0.4s0.2,0.5,0.2,0.8    c0,0.4-0.1,0.8-0.4,1.1c-0.3,0.3-0.7,0.5-1.2,0.5c0.1,0.1,0.3,0.3,0.4,0.5c0.2,0.4,0.5,1,0.8,1.7h-1.2c-0.1-0.3-0.3-0.7-0.5-1.3    c-0.1-0.3-0.3-0.5-0.5-0.7c-0.1-0.1-0.3-0.1-0.5-0.1h-0.4L151.9,66.5z M152.5,63.6h0.6c0.6,0,1,0,1.2-0.1    c0.2-0.1,0.3-0.2,0.4-0.3c0.1-0.1,0.2-0.3,0.2-0.5c0-0.2-0.1-0.3-0.2-0.4c-0.1-0.1-0.3-0.1-0.6-0.1h-1.2L152.5,63.6z"></path>			<path class="st0" d="M157.2,64.5c0-0.3,0-0.6,0.1-0.9c0.1-0.4,0.3-0.8,0.6-1.2c0.3-0.3,0.6-0.6,0.9-0.8c0.4-0.2,0.8-0.3,1.3-0.3    c0.7,0,1.2,0.2,1.6,0.6s0.6,0.9,0.6,1.5c0,0.5-0.1,1.1-0.4,1.6c-0.3,0.5-0.6,0.9-1.1,1.2s-1,0.4-1.5,0.4c-0.5,0-0.9-0.1-1.2-0.3    c-0.3-0.2-0.6-0.5-0.7-0.8C157.3,65.2,157.2,64.8,157.2,64.5z M158.3,64.5c0,0.3,0.1,0.6,0.3,0.9s0.5,0.4,0.9,0.4    c0.3,0,0.6-0.1,0.8-0.3s0.5-0.5,0.7-0.8s0.3-0.7,0.3-1.1c0-0.4-0.1-0.7-0.3-0.9c-0.2-0.2-0.5-0.3-0.9-0.3c-0.5,0-1,0.2-1.3,0.7    S158.3,63.9,158.3,64.5z"></path>			<path class="st0" d="M164.5,61.4h1.1l-0.6,2.8l-0.1,0.7c0,0.1,0,0.1,0,0.2c0,0.2,0.1,0.4,0.2,0.5c0.2,0.1,0.4,0.2,0.7,0.2    c0.3,0,0.5,0,0.6-0.1c0.2-0.1,0.3-0.2,0.4-0.4c0.1-0.2,0.2-0.5,0.3-1l0.6-2.8h1.1l-0.6,2.8c-0.1,0.6-0.3,1-0.4,1.3    c-0.2,0.3-0.4,0.6-0.8,0.8c-0.3,0.2-0.8,0.3-1.3,0.3c-0.6,0-1.1-0.1-1.4-0.4c-0.3-0.3-0.5-0.7-0.5-1.1c0-0.1,0-0.2,0-0.3    c0-0.1,0.1-0.3,0.1-0.6L164.5,61.4z"></path>			<path class="st0" d="M170.5,66.5h-1.1l1.1-5.1h2.1c0.4,0,0.7,0,0.9,0.1c0.2,0.1,0.4,0.2,0.5,0.4c0.1,0.2,0.2,0.4,0.2,0.7    c0,0.3-0.1,0.5-0.2,0.7s-0.2,0.4-0.4,0.6c-0.2,0.1-0.3,0.3-0.5,0.3c-0.2,0.1-0.4,0.1-0.7,0.2c-0.2,0-0.5,0-1,0H171L170.5,66.5z     M171.1,63.7h0.3c0.6,0,1,0,1.1-0.1c0.2-0.1,0.3-0.2,0.5-0.3s0.2-0.3,0.2-0.5c0-0.1,0-0.2-0.1-0.3c-0.1-0.1-0.1-0.1-0.2-0.2    c-0.1,0-0.3-0.1-0.7-0.1h-0.8L171.1,63.7z"></path>		</g>	</g>	<rect x="-22" y="-34.9" class="st1" width="240.9" height="155.9"></rect></g></svg>