<svg xmlns="http://www.w3.org/2000/svg" xmlns:xlink="http://www.w3.org/1999/xlink" width="2000" zoomAndPan="magnify" viewBox="0 0 1500 1499.999933" height="2000" preserveAspectRatio="xMidYMid meet" version="1.0"><defs><g/><clipPath id="559d827183"><path d="M 811.480469 761.742188 L 965.414062 761.742188 L 965.414062 1084.765625 L 811.480469 1084.765625 Z M 811.480469 761.742188 " clip-rule="nonzero"/></clipPath><clipPath id="7c9c505d3c"><path d="M 0.480469 0.742188 L 154.414062 0.742188 L 154.414062 323.765625 L 0.480469 323.765625 Z M 0.480469 0.742188 " clip-rule="nonzero"/></clipPath><clipPath id="fa0c826817"><rect x="0" width="155" y="0" height="324"/></clipPath><clipPath id="a5ad10f147"><rect x="0" width="492" y="0" height="1219"/></clipPath><clipPath id="054683ef8e"><rect x="0" width="747" y="0" height="1254"/></clipPath></defs><g clip-path="url(#559d827183)"><g transform="matrix(1, 0, 0, 1, 811, 761)"><g clip-path="url(#fa0c826817)"><g clip-path="url(#7c9c505d3c)"><path fill="#000000" d="M 0.480469 0.742188 L 154.414062 0.742188 L 154.414062 323.640625 L 0.480469 323.640625 Z M 0.480469 0.742188 " fill-opacity="1" fill-rule="nonzero"/></g></g></g></g><g transform="matrix(1, 0, 0, 1, 762, 0.000000000000112861)"><g clip-path="url(#a5ad10f147)"><g fill="#000000" fill-opacity="1"><g transform="translate(1.195104, 802.682781)"><g><path d="M 48.046875 0 L 48.046875 -455.578125 C 48.046875 -491.304688 56.820312 -523.644531 74.375 -552.59375 C 91.9375 -581.550781 115.65625 -604.5 145.53125 -621.4375 C 175.414062 -638.375 208.84375 -646.84375 245.8125 -646.84375 L 487 -646.84375 L 487 -517.484375 L 265.21875 -517.484375 C 247.96875 -517.484375 233.332031 -511.320312 221.3125 -499 C 209.300781 -486.6875 203.296875 -471.597656 203.296875 -453.734375 L 203.296875 -360.390625 L 455.578125 -360.390625 L 455.578125 -231.953125 L 203.296875 -231.953125 L 203.296875 0 Z M 48.046875 0 "/></g></g></g></g></g><g transform="matrix(1, 0, 0, 1, 226, 246)"><g clip-path="url(#054683ef8e)"><g fill="#000000" fill-opacity="1"><g transform="translate(0.185673, 1081.350179)"><g><path d="M 528.546875 11.453125 C 488.472656 11.453125 452.535156 2.707031 420.734375 -14.78125 C 388.929688 -32.28125 363.804688 -56.609375 345.359375 -87.765625 C 326.921875 -118.929688 317.703125 -154.234375 317.703125 -193.671875 L 317.703125 -485.625 C 317.703125 -495.789062 315.15625 -505.003906 310.0625 -513.265625 C 304.976562 -521.535156 298.300781 -528.210938 290.03125 -533.296875 C 281.757812 -538.390625 272.535156 -540.9375 262.359375 -540.9375 C 252.191406 -540.9375 242.972656 -538.390625 234.703125 -533.296875 C 226.429688 -528.210938 219.910156 -521.535156 215.140625 -513.265625 C 210.367188 -505.003906 207.984375 -495.789062 207.984375 -485.625 L 207.984375 0 L 51.515625 0 L 51.515625 -474.171875 C 51.515625 -514.234375 60.578125 -549.523438 78.703125 -580.046875 C 96.835938 -610.578125 121.960938 -634.75 154.078125 -652.5625 C 186.203125 -670.375 222.296875 -679.28125 262.359375 -679.28125 C 303.066406 -679.28125 339.320312 -670.375 371.125 -652.5625 C 402.925781 -634.75 428.050781 -610.578125 446.5 -580.046875 C 464.945312 -549.523438 474.171875 -514.234375 474.171875 -474.171875 L 474.171875 -182.21875 C 474.171875 -172.039062 476.710938 -162.660156 481.796875 -154.078125 C 486.890625 -145.492188 493.410156 -138.816406 501.359375 -134.046875 C 509.304688 -129.273438 518.050781 -126.890625 527.59375 -126.890625 C 537.769531 -126.890625 547.148438 -129.273438 555.734375 -134.046875 C 564.328125 -138.816406 571.164062 -145.492188 576.25 -154.078125 C 581.34375 -162.660156 583.890625 -172.039062 583.890625 -182.21875 L 583.890625 -667.828125 L 739.390625 -667.828125 L 739.390625 -193.671875 C 739.390625 -154.234375 730.164062 -118.929688 711.71875 -87.765625 C 693.28125 -56.609375 668.160156 -32.28125 636.359375 -14.78125 C 604.554688 2.707031 568.617188 11.453125 528.546875 11.453125 Z M 528.546875 11.453125 "/></g></g></g></g></g></svg>